# xmcd CD database file
#
# Track frame offsets:
#	150
#	26165
#	48970
#	69697
#	84727
#	115615
#	143100
#	174657
#	206142
#
# Disc length: 3055 seconds
#
# Revision: 1
# Processed by: cddbd v1.5.2PL0 Copyright (c) Steve Scherf et al.
# Submitted via: CDex 1.70beta2
#
DISCID=800bed09
DTITLE=Dusko Goykovic - Thumpets and Rhythm Unit
DYEAR=1979
DGENRE=Jazz
TTITLE0=Quo Vadis Samba
TTITLE1=In The Sign Of Lybra
TTITLE2=Rufus
TTITLE3=Donna Lee
TTITLE4=Adaptation Blues
TTITLE5=Summer Time
TTITLE6=Majority Of One
TTITLE7=Festival Blues
TTITLE8=The Ambassador
EXTD=YEAR: 1979
EXTT0=
EXTT1=
EXTT2=
EXTT3=
EXTT4=
EXTT5=
EXTT6=
EXTT7=
EXTT8=
PLAYORDER=
